<?xml version="1.0" encoding="UTF-8"?>
<svg width="429px" height="120px" viewBox="0 0 429 120" version="1.1" xmlns="http://www.w3.org/2000/svg" xmlns:xlink="http://www.w3.org/1999/xlink">
    <!-- Generator: Sketch 51.2 (57519) - http://www.bohemiancoding.com/sketch -->
    <title>logo-white</title>
    <desc>Created with Sketch.</desc>
    <defs></defs>
    <g id="Page-1" stroke="none" stroke-width="1" fill="none" fill-rule="evenodd">
        <g id="business-card-front" transform="translate(-205.000000, -195.000000)" fill="#FFFFFF">
            <g id="logo-white" transform="translate(205.000000, 195.000000)">
                <path d="M143.394462,27.6923077 L143.394462,78.2171077 L162.090462,78.2171077 L162.090462,88.5227077 L131.538462,88.5227077 L131.538462,27.6923077 L143.394462,27.6923077 Z M207.416862,70.5563077 L177.776862,70.5563077 C178.050462,77.3963077 181.424862,81.1355077 187.444062,81.1355077 C191.639262,81.1355077 194.284062,79.5851077 196.837662,75.8459077 L207.052062,77.4875077 C203.677662,85.6043077 197.020062,89.7995077 187.717662,89.7995077 C174.858462,89.7995077 166.468062,81.5003077 166.468062,68.8235077 C166.468062,56.0555077 174.584862,47.7563077 187.170462,47.7563077 C199.756062,47.7563077 207.416862,55.8731077 207.416862,69.0971077 L207.416862,70.5563077 Z M178.141662,63.5339077 L196.837662,63.5339077 C195.652062,58.4267077 192.368862,55.6907077 187.444062,55.6907077 C182.519262,55.6907077 179.144862,58.6091077 178.141662,63.5339077 Z M215.807262,49.0331077 L226.842462,49.0331077 L226.842462,53.5931077 C230.490462,49.3979077 234.047262,47.7563077 238.880862,47.7563077 C244.352862,47.7563077 248.183262,49.9451077 251.192862,54.9611077 C254.293662,50.1275077 258.580062,47.7563077 264.143262,47.7563077 C268.885662,47.7563077 273.080862,49.9451077 275.178462,53.4107077 C276.637662,55.7819077 277.276062,58.6091077 277.276062,62.9867077 L277.276062,88.5227077 L266.240862,88.5227077 L266.240862,66.9083077 C266.240862,63.7163077 266.058462,62.2571077 265.328862,60.6155077 C264.325662,58.4267077 262.319262,57.1499077 259.765662,57.1499077 C256.938462,57.1499077 254.476062,58.6091077 253.290462,61.0715077 C252.469662,62.8043077 252.104862,64.8107077 252.104862,68.2763077 L252.104862,88.5227077 L241.069662,88.5227077 L241.069662,67.5467077 C241.069662,64.1723077 240.887262,62.4395077 240.248862,60.9803077 C239.336862,58.7003077 236.874462,57.1499077 234.320862,57.1499077 C231.858462,57.1499077 229.213662,58.6091077 228.119262,60.7067077 C227.207262,62.3483077 226.842462,64.4459077 226.842462,68.2763077 L226.842462,88.5227077 L215.807262,88.5227077 L215.807262,49.0331077 Z M298.890462,109.589908 L287.855262,109.589908 L287.855262,49.0331077 L298.890462,49.0331077 L298.890462,54.1403077 C302.447262,49.6715077 306.368862,47.7563077 311.840862,47.7563077 C322.967262,47.7563077 331.266462,56.7851077 331.266462,68.8235077 C331.266462,80.6795077 322.876062,89.7995077 312.023262,89.7995077 C306.733662,89.7995077 302.812062,87.8843077 298.890462,83.4155077 L298.890462,109.589908 Z M308.740062,57.6971077 C302.629662,57.6971077 297.704862,62.6219077 297.704862,68.7323077 C297.704862,74.9339077 302.720862,79.8587077 308.831262,79.8587077 C314.850462,79.8587077 319.866462,74.8427077 319.866462,68.9147077 C319.866462,62.6219077 314.941662,57.6971077 308.740062,57.6971077 Z M378.599262,70.5563077 L348.959262,70.5563077 C349.232862,77.3963077 352.607262,81.1355077 358.626462,81.1355077 C362.821662,81.1355077 365.466462,79.5851077 368.020062,75.8459077 L378.234462,77.4875077 C374.860062,85.6043077 368.202462,89.7995077 358.900062,89.7995077 C346.040862,89.7995077 337.650462,81.5003077 337.650462,68.8235077 C337.650462,56.0555077 345.767262,47.7563077 358.352862,47.7563077 C370.938462,47.7563077 378.599262,55.8731077 378.599262,69.0971077 L378.599262,70.5563077 Z M349.324062,63.5339077 L368.020062,63.5339077 C366.834462,58.4267077 363.551262,55.6907077 358.626462,55.6907077 C353.701662,55.6907077 350.327262,58.6091077 349.324062,63.5339077 Z M417.268062,49.0331077 L428.303262,49.0331077 L428.303262,88.5227077 L417.268062,88.5227077 L417.268062,83.4155077 C413.711262,87.8843077 409.789662,89.7995077 404.317662,89.7995077 C393.191262,89.7995077 384.892062,80.7707077 384.892062,68.7323077 C384.892062,56.8763077 393.282462,47.7563077 404.135262,47.7563077 C409.516062,47.7563077 413.437662,49.6715077 417.268062,54.1403077 L417.268062,49.0331077 Z M407.418462,57.6971077 C401.216862,57.6971077 396.292062,62.6219077 396.292062,68.7323077 C396.292062,74.9339077 401.308062,79.8587077 407.418462,79.8587077 C413.437662,79.8587077 418.453662,74.8427077 418.453662,68.9147077 C418.453662,62.6219077 413.620062,57.6971077 407.418462,57.6971077 Z" id="Lempea"></path>
                <g id="logo-symbol-gradient" fill-rule="nonzero">
                    <path d="M20.6142857,79.1357143 L79.25,79.1357143 L91.0142857,119.564286 L42.0785714,119.564286 C38.7671719,119.538432 35.7320874,117.713003 34.1571429,114.8 L14.4785714,77.6571429 C16.4035575,78.5576293 18.490423,79.0605177 20.6142857,79.1357143 Z" id="Shape"></path>
                    <path d="M0.414285714,38.7785714 L0.414285714,0.45 L40.8285714,12.2142857 L40.8285714,76.6428571 L20.6285714,76.6428571 C16.5221084,76.6060814 12.7623891,74.3332722 10.8214286,70.7142857 L6.16428571,61.9428571 C2.40179536,54.8003299 0.428676137,46.8514781 0.414285714,38.7785714 Z" id="Shape"></path>
                </g>
            </g>
        </g>
    </g>
</svg>