<?xml version="1.0" encoding="UTF-8"?>
<svg width="186px" height="52px" viewBox="0 0 186 52" version="1.1" xmlns="http://www.w3.org/2000/svg" xmlns:xlink="http://www.w3.org/1999/xlink">
    <!-- Generator: Sketch 51.2 (57519) - http://www.bohemiancoding.com/sketch -->
    <title>logo-solid-red</title>
    <desc>Created with Sketch.</desc>
    <defs></defs>
    <g id="Page-1" stroke="none" stroke-width="1" fill="none" fill-rule="evenodd">
        <g id="lockups" transform="translate(-209.000000, -179.000000)" fill="#D9392D">
            <g id="logo-solid-red" transform="translate(209.000000, 179.000000)">
                <path d="M62.1376,12 L62.1376,33.89408 L70.2392,33.89408 L70.2392,38.35984 L57,38.35984 L57,12 L62.1376,12 Z M89.88064,30.5744 L77.03664,30.5744 C77.1552,33.5384 78.61744,35.15872 81.22576,35.15872 C83.04368,35.15872 84.18976,34.48688 85.29632,32.86656 L89.72256,33.57792 C88.26032,37.0952 85.37536,38.91312 81.34432,38.91312 C75.772,38.91312 72.13616,35.3168 72.13616,29.82352 C72.13616,24.29072 75.65344,20.6944 81.1072,20.6944 C86.56096,20.6944 89.88064,24.21168 89.88064,29.94208 L89.88064,30.5744 Z M77.19472,27.53136 L85.29632,27.53136 C84.78256,25.31824 83.35984,24.13264 81.22576,24.13264 C79.09168,24.13264 77.62944,25.39728 77.19472,27.53136 Z M93.51648,21.24768 L98.2984,21.24768 L98.2984,23.22368 C99.8792,21.40576 101.42048,20.6944 103.51504,20.6944 C105.88624,20.6944 107.54608,21.64288 108.85024,23.81648 C110.19392,21.72192 112.05136,20.6944 114.46208,20.6944 C116.51712,20.6944 118.33504,21.64288 119.244,23.14464 C119.87632,24.17216 120.15296,25.39728 120.15296,27.29424 L120.15296,38.35984 L115.37104,38.35984 L115.37104,28.9936 C115.37104,27.6104 115.292,26.97808 114.97584,26.26672 C114.54112,25.31824 113.67168,24.76496 112.56512,24.76496 C111.34,24.76496 110.27296,25.39728 109.7592,26.46432 C109.40352,27.2152 109.24544,28.08464 109.24544,29.5864 L109.24544,38.35984 L104.46352,38.35984 L104.46352,29.27024 C104.46352,27.808 104.38448,27.05712 104.10784,26.4248 C103.71264,25.4368 102.6456,24.76496 101.53904,24.76496 C100.472,24.76496 99.32592,25.39728 98.85168,26.30624 C98.45648,27.0176 98.2984,27.92656 98.2984,29.5864 L98.2984,38.35984 L93.51648,38.35984 L93.51648,21.24768 Z M129.5192,47.48896 L124.73728,47.48896 L124.73728,21.24768 L129.5192,21.24768 L129.5192,23.4608 C131.06048,21.52432 132.75984,20.6944 135.13104,20.6944 C139.95248,20.6944 143.5488,24.60688 143.5488,29.82352 C143.5488,34.96112 139.91296,38.91312 135.21008,38.91312 C132.91792,38.91312 131.21856,38.0832 129.5192,36.14672 L129.5192,47.48896 Z M133.78736,25.00208 C131.13952,25.00208 129.00544,27.13616 129.00544,29.784 C129.00544,32.47136 131.17904,34.60544 133.82688,34.60544 C136.4352,34.60544 138.6088,32.43184 138.6088,29.86304 C138.6088,27.13616 136.47472,25.00208 133.78736,25.00208 Z M164.05968,30.5744 L151.21568,30.5744 C151.33424,33.5384 152.79648,35.15872 155.4048,35.15872 C157.22272,35.15872 158.3688,34.48688 159.47536,32.86656 L163.9016,33.57792 C162.43936,37.0952 159.5544,38.91312 155.52336,38.91312 C149.95104,38.91312 146.3152,35.3168 146.3152,29.82352 C146.3152,24.29072 149.83248,20.6944 155.28624,20.6944 C160.74,20.6944 164.05968,24.21168 164.05968,29.94208 L164.05968,30.5744 Z M151.37376,27.53136 L159.47536,27.53136 C158.9616,25.31824 157.53888,24.13264 155.4048,24.13264 C153.27072,24.13264 151.80848,25.39728 151.37376,27.53136 Z M180.81616,21.24768 L185.59808,21.24768 L185.59808,38.35984 L180.81616,38.35984 L180.81616,36.14672 C179.27488,38.0832 177.57552,38.91312 175.20432,38.91312 C170.38288,38.91312 166.78656,35.00064 166.78656,29.784 C166.78656,24.6464 170.4224,20.6944 175.12528,20.6944 C177.45696,20.6944 179.15632,21.52432 180.81616,23.4608 L180.81616,21.24768 Z M176.548,25.00208 C173.86064,25.00208 171.72656,27.13616 171.72656,29.784 C171.72656,32.47136 173.90016,34.60544 176.548,34.60544 C179.15632,34.60544 181.32992,32.43184 181.32992,29.86304 C181.32992,27.13616 179.23536,25.00208 176.548,25.00208 Z" id="Lempea-Copy"></path>
                <g id="logo-symbol-gradient-copy-4" fill-rule="nonzero">
                    <path d="M8.93285714,34.2921429 L34.3416667,34.2921429 L39.4395238,51.8111905 L18.2340476,51.8111905 C16.7991078,51.7999873 15.4839045,51.0089679 14.8014286,49.7466667 L6.27404762,33.6514286 C7.10820826,34.0416394 8.01251664,34.2595577 8.93285714,34.2921429 Z" id="Shape"></path>
                    <path d="M0.17952381,16.8040476 L0.17952381,0.195 L17.692381,5.29285714 L17.692381,33.2119048 L8.93904762,33.2119048 C7.15958031,33.1959686 5.53036859,32.2110846 4.68928571,30.6428571 L2.67119048,26.8419048 C1.04077799,23.7468096 0.185759659,20.3023072 0.17952381,16.8040476 Z" id="Shape"></path>
                </g>
            </g>
        </g>
    </g>
</svg>